<?xml version="1.0" encoding="UTF-8"?>
<svg viewBox="0 0 101 28" version="1.1" xmlns="http://www.w3.org/2000/svg" xmlns:xlink="http://www.w3.org/1999/xlink">
    <title>Brand Logo</title>
    <g id="Mobile" stroke="none" stroke-width="1" fill="none" fill-rule="evenodd">
        <g id="Home-V1-–-Mobile" transform="translate(-33.000000, -103.000000)" fill="#000000">
            <path d="M133.983284,125.751342 C133.955855,125.449362 133.873088,125.092259 133.734981,124.680033 C133.514107,124.267328 133.321624,123.965349 133.128179,123.745335 C133.045411,123.663369 132.935214,123.553123 132.741769,123.388232 C132.604144,123.168219 132.521376,123.03113 132.438608,122.948684 L131.445397,121.821774 C131.279861,121.629561 131.004129,121.327582 130.645149,120.915356 L130.424756,120.695342 C130.341988,120.558253 130.25922,120.448006 130.231792,120.420685 C130.203882,120.338239 130.093685,120.228472 129.955579,120.063102 L129.624508,119.733322 C129.597079,119.706 129.514311,119.596233 129.404115,119.458664 C129.266009,119.321096 129.155812,119.211329 129.100473,119.128883 C128.907509,118.881548 128.741974,118.689335 128.54901,118.497123 L128.383474,118.332233 C128.300707,118.221986 128.245368,118.14002 128.217939,118.112219 C128.107742,118.002452 128.024975,117.892205 127.969636,117.81024 L127.583226,117.425335 C127.555798,117.34289 127.47303,117.260445 127.362834,117.150678 C127.224727,117.013109 127.114531,116.903342 127.08662,116.820897 C127.003853,116.738452 127.003853,116.600884 127.08662,116.463794 L127.47303,116.07889 C127.610655,115.941322 127.748762,115.831555 127.858958,115.74911 L128.990277,114.622678 C129.073044,114.594877 129.155812,114.512432 129.293437,114.375343 C129.404115,114.237774 129.486883,114.128007 129.56965,114.100206 L130.231792,113.440644 L130.590291,113.083541 C130.673059,113.056219 130.783255,112.946452 130.921362,112.808884 L131.197094,112.534226 C131.279861,112.451781 131.362629,112.341535 131.500735,112.149322 L131.997341,111.681973 C132.134967,111.544884 132.328412,111.32487 132.548805,111.022891 C132.741769,110.720432 132.907304,110.390651 133.017982,110.06087 C133.10075,109.951103 133.155607,109.758891 133.238375,109.483754 C133.266285,109.044206 133.266285,108.576857 133.238375,108.082665 C133.128179,107.450425 132.907304,106.873309 132.548805,106.378638 C132.438608,106.268871 132.273073,106.076658 132.052199,105.774199 L131.252432,105.142439 C130.838594,104.950227 130.480095,104.83998 130.176453,104.757535 C129.983007,104.67509 129.707276,104.647768 129.293437,104.647768 C129.155812,104.647768 128.88008,104.67509 128.438813,104.757535 C128.245368,104.83998 128.052404,104.922426 127.858958,105.032193 C127.610655,105.142439 127.334923,105.280008 127.08662,105.444419 C126.893656,105.63711 126.590015,105.93909 126.176176,106.378638 C125.928354,106.681097 125.734909,106.928432 125.597284,107.066001 C125.514516,107.175768 125.37641,107.340658 125.155535,107.532871 C124.962571,107.752884 124.824465,107.917775 124.714268,108.027542 C124.576643,108.16511 124.383198,108.412446 124.079556,108.714905 C123.997269,108.824672 123.859163,108.989562 123.638289,109.209096 C123.472753,109.456432 123.307218,109.676446 123.114254,109.841336 L122.893861,110.06087 C122.783183,110.198439 122.700416,110.308206 122.672987,110.335528 C122.590219,110.445774 122.452113,110.637987 122.259149,110.885322 C122.038274,111.077535 121.872739,111.242425 121.762543,111.352672 L120.962776,112.314213 C120.934866,112.341535 120.852098,112.396658 120.741902,112.479103 C120.714473,112.561548 120.603795,112.671315 120.46617,112.808884 C120.438741,112.836206 120.383402,112.91913 120.300635,113.028897 C120.217867,113.138665 120.162528,113.22111 120.135099,113.248911 L119.831458,113.550891 L119.7766,113.606014 C119.7766,113.606014 119.74869,113.578213 119.721261,113.495767 L119.721261,113.193788 L119.721261,112.42398 L119.721261,111.847343 L119.721261,111.627329 C119.721261,110.418452 119.74869,109.456432 119.7766,108.769548 C119.7766,108.46709 119.74869,108.192432 119.721261,107.972898 C119.693832,107.615316 119.555726,107.20309 119.335333,106.681097 C119.114459,106.268871 118.838246,105.884446 118.479746,105.554665 C118.259353,105.361973 118.01105,105.197562 117.707408,105.032193 L117.652069,105.032193 C117.624641,105.004871 117.624641,104.977549 117.624641,104.977549 C117.514444,104.895104 117.431677,104.83998 117.348909,104.812658 C117.238712,104.784857 116.962499,104.702412 116.521232,104.592645 C116.493803,104.592645 116.410555,104.565323 116.272929,104.538001 C116.134823,104.5102 116.024626,104.482878 115.997197,104.482878 C115.969287,104.482878 115.91443,104.5102 115.831662,104.538001 L115.720984,104.538001 C115.638217,104.538001 115.335056,104.565323 114.811021,104.647768 C114.783111,104.647768 114.672915,104.67509 114.534808,104.757535 C114.397183,104.784857 114.286505,104.83998 114.259077,104.867782 C114.176309,104.895104 114.010774,105.004871 113.790381,105.142439 C113.762471,105.169761 113.679703,105.224884 113.569506,105.280008 C113.486739,105.361973 113.431881,105.417097 113.348632,105.444419 C113.155668,105.581987 112.934794,105.801521 112.714401,106.10398 C112.631633,106.214227 112.576295,106.323994 112.493527,106.406439 C112.38333,106.598651 112.300563,106.763542 112.217795,106.956233 C112.217795,106.983555 112.189885,107.066001 112.162456,107.175768 C112.079689,107.258213 112.05226,107.313336 112.05226,107.395781 C111.969492,107.643117 111.942063,107.862651 111.942063,108.082665 L111.942063,108.63198 L111.942063,110.610665 L111.942063,111.132658 C111.969492,111.49024 111.969492,111.681973 111.942063,111.681973 L111.942063,112.122 L111.942063,112.808884 L111.942063,114.567555 C111.942063,115.364685 111.969492,115.941322 111.996921,116.353548 L111.996921,116.765774 C111.969492,116.985788 111.969492,117.233123 111.996921,117.535103 L111.942063,118.002452 C111.942063,118.332233 111.969492,118.497123 111.996921,118.497123 C111.996921,118.689335 111.969492,118.991315 111.942063,119.40402 L111.942063,120.255794 L111.942063,121.327582 L111.942063,122.096431 C111.942063,122.371568 111.969492,122.591582 111.996921,122.783794 C111.996921,123.03113 111.969492,123.250664 111.942063,123.443356 L111.942063,124.982013 L111.942063,125.531807 L111.942063,125.998677 L111.942063,126.878252 L111.942063,127.015342 C111.969492,127.125588 111.996921,127.208033 111.996921,127.289999 C112.135027,127.702225 112.273134,128.004684 112.38333,128.25202 C112.410759,128.361787 112.466098,128.444232 112.493527,128.472033 C112.520956,128.554478 112.576295,128.609122 112.603723,128.636924 C112.797169,128.938903 113.0729,129.241362 113.45931,129.543341 C113.900577,129.873122 114.341844,130.093136 114.811021,130.202903 C115.142092,130.313149 115.473163,130.367793 115.831662,130.367793 C116.190162,130.367793 116.548661,130.313149 116.852303,130.202903 C117.431677,130.065335 117.98314,129.763355 118.535085,129.296485 C118.893584,128.856458 119.114459,128.526677 119.224655,128.307143 C119.335333,128.142252 119.472958,127.839794 119.611065,127.400246 C119.693832,127.097787 119.721261,126.795807 119.721261,126.548472 L119.721261,125.641575 C119.721261,125.339116 119.74869,124.542465 119.665922,124.240006 L119.665922,120.475328 L119.665922,119.843568 L119.665922,119.568911 L119.665922,119.458664 C119.693832,119.458664 119.74869,119.486465 119.7766,119.513787 L119.831458,119.568911 L120.300635,120.200671 L120.797241,120.860232 C120.990205,121.107568 121.128311,121.29978 121.265937,121.437349 C121.265937,121.437349 121.404043,121.629561 121.707204,122.041787 L122.20381,122.674027 L122.838522,123.497999 C122.865951,123.525801 122.92129,123.608246 123.004057,123.690691 L123.169593,123.855102 C123.197022,123.882903 123.500663,124.295129 124.079556,125.092259 C124.273001,125.339116 124.576643,125.72402 124.990481,126.218691 C125.128107,126.438705 125.37641,126.768006 125.734909,127.180232 C125.928354,127.427568 126.231515,127.812472 126.673263,128.307143 L126.728121,128.361787 C126.728121,128.389109 126.810889,128.499355 126.976424,128.691567 L127.141959,128.856458 C127.280066,129.158917 127.390262,129.296485 127.527888,129.323807 C127.886868,129.653588 128.328135,129.900923 128.88008,130.093136 C128.990277,130.120458 129.23858,130.202903 129.624508,130.313149 C130.093685,130.313149 130.452185,130.285348 130.700488,130.258026 C131.058987,130.175581 131.445397,130.065335 131.831806,129.928245 L132.052199,129.818478 C132.355841,129.598465 132.466037,129.571143 132.604144,129.433574 C132.962643,129.131115 133.155607,128.911581 133.238375,128.801814 C133.542017,128.279341 133.707552,127.949561 133.734981,127.839794 C133.79032,127.702225 133.845178,127.482691 133.927945,127.180232 C134.011194,126.768006 134.011194,126.273335 133.983284,125.751342 L133.983284,125.751342 Z M101.376675,112.753761 C101.293907,112.451781 101.18323,112.204445 101.045604,112.011754 C100.687105,111.709774 100.383463,111.572206 100.13516,111.572206 L99.9696248,111.572206 C99.7213218,111.544884 99.3628223,111.517562 98.8936452,111.517562 L98.0385397,111.517562 C97.6800403,111.49024 97.4038273,111.462439 97.2387731,111.462439 C97.1560055,111.49024 97.1280955,111.544884 97.1280955,111.572206 L97.1280955,111.737096 L97.1280955,113.028897 L97.1280955,113.880671 L97.1280955,114.457308 C97.1560055,114.540233 97.1834343,114.567555 97.1834343,114.567555 L97.8176656,114.567555 L98.1487362,114.567555 L98.5904845,114.567555 L99.2800547,114.567555 L100.13516,114.567555 C100.13516,114.594877 100.190018,114.622678 100.300695,114.622678 L100.410892,114.567555 C100.797301,114.375343 101.073033,114.128007 101.21114,113.880671 C101.404104,113.523569 101.459443,113.138665 101.376675,112.753761 L101.376675,112.753761 Z M108.659267,125.751342 C108.686696,125.943554 108.714606,126.19089 108.714606,126.493348 C108.714606,126.823129 108.631838,127.208033 108.493731,127.674903 C108.410964,127.894917 108.328196,128.087129 108.218,128.25202 C108.079893,128.554478 107.941787,128.774013 107.83159,128.911581 C107.473091,129.268684 107.197359,129.516019 106.976485,129.653588 L106.507308,129.983369 C106.06604,130.175581 105.817738,130.258026 105.790309,130.258026 C105.431809,130.340471 105.183506,130.340471 104.990542,130.313149 C104.769668,130.313149 104.493936,130.285348 104.190294,130.202903 C103.776456,130.010691 103.362618,129.763355 102.893922,129.433574 L102.673048,129.241362 C102.424745,128.994026 102.23178,128.774013 102.121584,128.636924 C102.066245,128.526677 101.790513,128.087129 101.321336,127.345122 C101.18323,127.097787 101.018176,126.823129 100.852159,126.493348 C100.82473,126.466027 100.769873,126.35578 100.687105,126.218691 C100.603856,126.081122 100.548998,125.971355 100.521088,125.943554 C100.49366,125.916232 100.328124,125.668896 100.079821,125.256671 C99.942196,125.009335 99.8040894,124.762479 99.6664641,124.569787 C99.5832153,124.46002 99.5004476,124.295129 99.3902511,124.075116 C99.2526258,123.882903 99.1419482,123.745335 99.1145193,123.635568 C98.8936452,123.333588 98.700681,122.976006 98.5351457,122.618904 C98.3142715,122.344246 98.1766462,122.124232 98.0933974,121.986664 C97.9557721,121.684684 97.8455756,121.491993 97.7628079,121.382226 C97.7348979,121.29978 97.6800403,121.217335 97.5972726,121.079767 C97.5145049,120.97 97.4870761,120.887554 97.4591661,120.805109 C97.4317373,120.777787 97.3763984,120.66802 97.3489696,120.530452 C97.266202,120.420685 97.2387731,120.338239 97.2387731,120.310438 L97.1280955,120.200671 C97.1006666,120.228472 97.0453278,120.255794 97.017899,120.255794 L97.017899,120.310438 C97.0453278,120.612897 97.0727566,120.97 97.0727566,121.437349 L97.0727566,122.893561 C97.1006666,123.19602 97.1280955,123.553123 97.1280955,124.020472 C97.1006666,124.020472 97.0727566,124.102917 97.0727566,124.240006 L97.1280955,124.46002 L97.1280955,126.108924 C97.1280955,126.410903 97.1006666,126.630438 97.0727566,126.768006 C97.0727566,126.878252 97.0453278,126.960218 97.017899,127.015342 C97.017899,127.043143 96.9904702,127.097787 96.9625601,127.180232 C96.9351313,127.372444 96.8802737,127.482691 96.8523637,127.565136 C96.7142572,127.977362 96.549203,128.334465 96.3557577,128.636924 C96.1627935,128.938903 95.8042941,129.268684 95.3351169,129.653588 C95.2523493,129.736033 95.114724,129.818478 94.9212786,129.928245 C94.7283145,130.010691 94.6176368,130.065335 94.5348691,130.093136 C94.4525827,130.093136 94.341905,130.120458 94.1489408,130.202903 C94.0108343,130.230704 93.9280667,130.258026 93.845299,130.258026 L93.2938354,130.258026 L92.5489265,130.093136 C92.3559623,130.010691 92.190427,129.928245 91.9974629,129.818478 C91.8867852,129.790677 91.5836245,129.598465 91.0865374,129.241362 C90.8935732,129.021348 90.7554667,128.829136 90.6452702,128.636924 C90.5076449,128.444232 90.3969673,128.279341 90.2867708,128.114451 C90.2040031,127.894917 90.1486643,127.730026 90.0658966,127.61978 C90.0658966,127.537814 90.0384678,127.427568 89.9557001,127.289999 C89.9282713,127.180232 89.9008425,127.097787 89.9008425,127.015342 C89.9008425,126.878252 89.8729325,126.795807 89.8455037,126.713362 L89.8455037,126.108924 L89.8455037,124.680033 L89.8455037,124.240006 L89.8455037,121.491993 L89.8455037,120.97 L89.8455037,119.843568 L89.8455037,119.40402 L89.8455037,118.936671 L89.8455037,118.497123 L89.8455037,118.057575 L89.8455037,117.535103 L89.8455037,117.425335 C89.8729325,117.425335 89.8729325,117.287767 89.8455037,117.040911 L89.8455037,116.683329 L89.8455037,116.188658 L89.8455037,115.501774 L89.8455037,114.842212 L89.8455037,111.132658 L89.8455037,108.63198 C89.8455037,108.274877 89.8729325,108.00022 89.9008425,107.807528 C89.983129,107.340658 90.0938066,106.928432 90.2319131,106.571329 C90.3141996,106.461083 90.3695384,106.323994 90.4523061,106.159103 C90.5350738,106.048857 90.6731803,105.856645 90.8661444,105.554665 C91.1144474,105.280008 91.417608,105.059994 91.7765887,104.867782 C92.0797493,104.67509 92.4935876,104.565323 93.0181036,104.482878 C93.2659254,104.455556 93.596996,104.427754 94.0108343,104.427754 L94.1489408,104.427754 L95.0314751,104.427754 L95.2249204,104.427754 C95.3351169,104.455556 95.4178846,104.482878 95.4453134,104.482878 C95.6661876,104.482878 95.8317229,104.455556 95.9419194,104.427754 L96.1074547,104.427754 C96.1902224,104.455556 96.2455612,104.482878 96.27299,104.482878 C96.27299,104.455556 96.4938642,104.427754 96.9077025,104.427754 L97.5419338,104.482878 C97.5419338,104.455556 97.6247014,104.427754 97.8176656,104.427754 L98.1487362,104.482878 L99.0591805,104.482878 L99.8040894,104.482878 L100.990266,104.482878 C101.404104,104.482878 101.679836,104.5102 101.8728,104.538001 C102.010906,104.620446 102.314548,104.647768 102.397316,104.647768 C102.424745,104.647768 102.507512,104.67509 102.617709,104.702412 C102.811154,104.730213 102.921351,104.784857 103.004118,104.812658 C103.169654,104.83998 103.417957,104.950227 103.749027,105.087316 C104.162865,105.224884 104.466026,105.361973 104.659471,105.499542 C105.017971,105.691754 105.321132,105.856645 105.542006,106.048857 C105.73497,106.241549 105.900505,106.351316 106.011183,106.406439 L106.397111,106.790864 C106.590556,107.038199 106.838378,107.36798 107.14202,107.752884 C107.224788,107.835329 107.362894,108.055343 107.362894,108.137309 C107.555858,108.385124 107.693965,108.63198 107.804161,108.879316 C107.941787,109.318864 108.025036,109.566199 108.052464,109.648644 C108.19009,110.06087 108.300767,110.390651 108.328196,110.610665 C108.356106,110.720432 108.383535,110.858 108.383535,111.022891 C108.466303,111.242425 108.493731,111.379993 108.493731,111.462439 C108.493731,111.572206 108.52116,111.709774 108.54907,111.847343 C108.576499,112.039555 108.603928,112.177123 108.603928,112.259569 L108.603928,112.589349 C108.631838,112.726439 108.659267,112.836206 108.659267,112.91913 L108.659267,113.770425 C108.631838,113.85287 108.603928,113.963117 108.603928,114.100206 C108.576499,114.237774 108.54907,114.347541 108.54907,114.402664 L108.383535,115.392007 C108.356106,115.474452 108.300767,115.556897 108.272857,115.694466 C108.19009,115.886678 108.135232,115.996445 108.107803,116.07889 C108.025036,116.381349 107.969697,116.573562 107.886929,116.683329 L107.638626,117.205322 L107.307555,117.699993 C107.307555,117.727794 107.280127,117.782438 107.197359,117.837561 C107.114591,117.920007 107.086681,117.974651 107.086681,118.002452 C106.949056,118.194664 106.783521,118.359555 106.617985,118.551767 L106.121379,119.019116 C105.762399,119.321096 105.514577,119.513787 105.37647,119.623554 C105.349042,119.733322 105.321132,119.816246 105.321132,119.843568 C105.349042,119.926013 105.403899,119.980657 105.431809,120.008459 C105.514577,120.090904 105.569916,120.200671 105.624773,120.365561 C105.817738,120.612897 105.928415,120.805109 106.011183,120.915356 C106.093469,121.052445 106.231576,121.245136 106.45245,121.491993 C106.617985,121.794452 106.728182,122.014465 106.810949,122.151554 C106.838378,122.234 106.949056,122.316445 107.086681,122.454013 C107.197359,122.646225 107.280127,122.755993 107.307555,122.838438 C107.611197,123.278465 107.804161,123.608246 107.941787,123.855102 C108.079893,123.992671 108.245429,124.267328 108.383535,124.680033 C108.466303,124.844445 108.52116,125.064458 108.603928,125.311794 C108.603928,125.531807 108.631838,125.668896 108.659267,125.751342 L108.659267,125.751342 Z M45.7173474,121.327582 C45.6345798,121.13489 45.5797221,120.997801 45.4969545,120.915356 C45.3035091,120.66802 45.0831162,120.50313 44.862242,120.475328 L44.2001007,120.475328 C43.9243689,120.448006 43.5379594,120.420685 43.0692635,120.420685 C42.8758181,120.392883 42.5726575,120.365561 42.1588192,120.365561 L41.2483749,120.365561 L41.027982,120.365561 C41.0000719,120.392883 40.9452143,120.420685 40.9177855,120.420685 L40.9177855,120.585575 L40.9177855,121.245136 L40.9177855,121.986664 L40.9177855,122.041787 L40.9177855,122.674027 L41.027982,122.783794 L41.5794456,122.783794 L42.0486227,122.783794 C42.1313904,122.811116 42.2415869,122.838438 42.3796934,122.838438 L42.710764,122.838438 L43.17946,122.838438 L43.3449953,122.838438 L43.455673,122.838438 L43.7314048,122.838438 L44.4763137,122.838438 C44.6692779,122.866239 44.8348132,122.838438 45.0277773,122.728671 C45.3862768,122.426212 45.5797221,122.179356 45.6620086,121.986664 C45.7452575,121.684684 45.7452575,121.464671 45.7173474,121.327582 L45.7173474,121.327582 Z M40.9177855,113.330877 C40.9452143,113.440644 40.9726431,113.523569 40.9726431,113.550891 L41.0828396,113.660658 L41.4692491,113.660658 L41.6347844,113.660658 L42.1588192,113.660658 L42.6000863,113.660658 C42.9037282,113.660658 43.1520311,113.633336 43.2901376,113.550891 C43.5105306,113.358678 43.6486371,113.248911 43.7314048,113.193788 L43.8416013,113.138665 C43.9517977,112.891329 44.0071366,112.643993 44.0071366,112.42398 C43.9797078,112.177123 43.8690301,111.984432 43.7314048,111.847343 L43.6760659,111.792219 C43.4277629,111.572206 43.1246023,111.462439 42.8209605,111.462439 L42.2694969,111.462439 C42.0486227,111.435117 41.8830874,111.407315 41.8003197,111.407315 L41.5245879,111.407315 L41.027982,111.407315 L40.9726431,111.462439 C40.9452143,111.544884 40.9177855,111.572206 40.9177855,111.572206 L40.9177855,112.479103 L40.9177855,113.330877 Z M53.5244552,121.547116 C53.5518841,121.739328 53.5797941,121.93202 53.5797941,122.151554 L53.5797941,122.893561 C53.4970264,123.03113 53.4691164,123.36091 53.4691164,123.497999 L53.4691164,123.745335 C53.3863487,123.965349 53.3589199,124.130239 53.3589199,124.240006 C53.3589199,124.322451 53.3310099,124.404897 53.2761523,124.514664 C53.2487234,124.652232 53.2208134,124.734677 53.2208134,124.762479 C53.138527,124.899568 53.0278493,125.229349 52.8348851,125.696698 C52.5312433,126.218691 52.2555115,126.658239 51.9792985,127.015342 C51.5380314,127.537814 51.2069607,127.894917 50.9586577,128.114451 C50.4346229,128.472033 50.0761235,128.718889 49.8278205,128.856458 C49.4139822,129.076472 49.0554827,129.241362 48.7244121,129.378451 C47.9795031,129.598465 47.4554683,129.736033 47.1797365,129.763355 C46.7379882,129.8458 46.4069176,129.873122 46.1590958,129.873122 C45.5518121,129.873122 45.0831162,129.8458 44.7520455,129.818478 L43.455673,129.818478 C42.8483893,129.818478 42.3796934,129.790677 42.0486227,129.763355 L39.3172899,129.763355 L38.7104874,129.763355 L36.7245448,129.763355 C36.5310994,129.763355 36.3660453,129.736033 36.1726,129.653588 C35.5932263,129.516019 35.1245304,129.268684 34.7381209,128.966704 C34.4344791,128.718889 34.2415149,128.526677 34.1313184,128.41691 C33.9932119,128.224698 33.8555866,128.059807 33.7174801,127.894917 C33.6900513,127.78467 33.6072837,127.647581 33.496606,127.455369 C33.3589807,127.15291 33.2487842,126.960218 33.2208742,126.823129 C33.2208742,126.740684 33.1934453,126.630438 33.1106777,126.438705 C33.0827677,126.246013 33.0553388,126.136246 33.0553388,126.053801 C33.0553388,125.971355 33.02791,125.833787 33,125.641575 L33,125.256671 L33,125.202027 L33,124.982013 C33.02791,124.844445 33.0553388,124.734677 33.0553388,124.707355 L33.0553388,124.240006 L33.0553388,123.635568 L33.0553388,122.783794 L33.0553388,121.712006 L33.0553388,120.365561 L33.0553388,118.881548 L33.0553388,118.167342 L33.0553388,117.095555 C33.0827677,117.095555 33.1106777,116.957986 33.1106777,116.71113 L33.0553388,116.298904 L33.0553388,115.007103 L33.0553388,113.660658 L33.0553388,112.149322 L33.0553388,111.901987 C33.0827677,111.764898 33.1106777,111.654651 33.1106777,111.572206 L33.1106777,111.132658 C33.0827677,110.967767 33.0553388,110.858 33.0553388,110.775555 L33.0553388,109.648644 L33.0553388,109.044206 L33.0553388,108.137309 C33.0553388,107.889973 33.0827677,107.697761 33.1106777,107.587994 C33.1381065,107.505549 33.1934453,107.36798 33.2208742,107.175768 C33.3036418,106.956233 33.3589807,106.790864 33.3864095,106.681097 C33.6347125,106.268871 33.7723378,106.021535 33.8555866,105.93909 C34.0485508,105.691754 34.3242826,105.389775 34.7381209,105.087316 C34.8483174,104.977549 34.9589951,104.895104 35.0966204,104.867782 C35.3174945,104.730213 35.5657975,104.620446 35.8141005,104.538001 C35.8968682,104.5102 35.9796358,104.482878 36.1177423,104.482878 C36.2279388,104.400432 36.3107065,104.372631 36.3934741,104.372631 L36.7245448,104.372631 C36.8621701,104.345309 36.9728478,104.317987 37.0556154,104.317987 C37.3034372,104.345309 37.6345078,104.372631 38.0762562,104.372631 C38.5728621,104.372631 38.9587904,104.400432 39.2070934,104.427754 L39.8971447,104.427754 L40.283073,104.427754 L40.6141437,104.427754 L41.2483749,104.427754 C41.4413391,104.455556 41.6347844,104.482878 41.8277486,104.482878 L43.17946,104.482878 L43.5105306,104.482878 C43.6486371,104.482878 43.8416013,104.5102 44.0624754,104.538001 C44.2554396,104.565323 44.4209749,104.592645 44.5311714,104.592645 C44.613939,104.592645 44.6967067,104.620446 44.8073844,104.702412 C44.9450097,104.730213 45.0556874,104.757535 45.0831162,104.757535 C45.3862768,104.83998 45.6345798,104.895104 45.8280251,104.977549 C46.0209893,105.004871 46.2692923,105.114638 46.5729341,105.252206 C47.0142012,105.444419 47.3173618,105.609309 47.5108072,105.719076 C47.786539,105.856645 47.9795031,105.966891 48.0896996,106.048857 C48.3105738,106.186425 48.5314479,106.351316 48.7797509,106.516206 C48.8625186,106.598651 48.9727151,106.708419 49.1656792,106.845987 L49.4967498,107.175768 L50.0761235,107.917775 C50.1035523,108.00022 50.2416588,108.16511 50.462533,108.46709 C50.6554971,108.742227 50.7936036,109.016884 50.9038001,109.318864 C50.9586577,109.538877 51.0693354,109.841336 51.2069607,110.225761 C51.2897284,110.445774 51.3176384,110.637987 51.3176384,110.775555 C51.3176384,110.802877 51.3450672,110.885322 51.3729772,111.022891 C51.4004061,111.132658 51.4278349,111.215103 51.4278349,111.242425 L51.4278349,111.681973 C51.4557449,111.901987 51.4831737,112.066877 51.4831737,112.149322 C51.4831737,112.506904 51.4557449,112.781562 51.4278349,112.973774 C51.4278349,113.276233 51.3729772,113.606014 51.2622996,113.935795 C51.2348707,114.01776 51.1795319,114.155329 51.1521031,114.375343 C51.0693354,114.567555 51.0419066,114.705123 51.0419066,114.787089 C51.0139966,114.870014 50.9865678,114.924658 50.9586577,115.007103 C50.9312289,115.144671 50.8210324,115.336884 50.6829259,115.584219 C50.5448194,115.886678 50.4071941,116.07889 50.2969976,116.188658 L50.2416588,116.243781 L50.2416588,116.298904 C50.2416588,116.435993 50.2690876,116.54576 50.3523365,116.573562 C50.8210324,116.930664 51.0419066,117.095555 51.0419066,117.095555 C51.3450672,117.315568 51.5380314,117.480459 51.648709,117.590226 C51.7314767,117.672671 51.7868156,117.755116 51.869102,117.837561 L52.145315,118.112219 C52.2829403,118.304431 52.393618,118.469801 52.5038145,118.662013 C52.6967786,118.963993 52.8623139,119.321096 53.0552781,119.678678 L53.3589199,120.475328 C53.3589199,120.558253 53.3863487,120.66802 53.4142588,120.860232 C53.4970264,121.162691 53.5244552,121.409548 53.5244552,121.547116 L53.5244552,121.547116 Z M84.0219325,115.292306 C82.4142188,114.323575 79.9990392,115.293744 78.6271171,117.459847 C77.2556762,119.625472 77.4467155,122.166893 79.0544292,123.135624 C80.6616617,124.104834 83.0768413,123.134665 84.4487634,120.968562 C85.8206855,118.802458 85.629165,116.261516 84.0219325,115.292306 L84.0219325,115.292306 Z M75.0844687,120.005103 C74.6561941,119.005216 74.2375438,118.000535 73.8188934,117.000647 C73.5085146,116.269185 73.0537737,115.604351 72.481137,115.043053 C71.5562565,114.206617 70.1954021,114.019198 69.069377,114.573786 C68.3538217,114.9376 67.7032294,115.413577 67.1445476,115.982065 C65.5517514,117.437319 63.819405,118.657699 61.6491599,119.169627 C59.4789148,119.681074 58.314393,121.70913 58.2807085,123.49752 C58.2090086,125.061582 59.0169558,126.538885 60.3883967,127.351833 C61.1790203,127.880537 62.0793592,128.233326 63.0254129,128.384795 C65.7937987,128.837285 68.5179134,129.518895 71.167441,130.421958 L72.8564787,130.952579 C73.337686,130.976066 73.6793432,131.003868 74.0306246,130.999554 C74.3737254,130.997636 74.7163451,130.972711 75.0555962,130.924298 C76.8962143,130.716268 78.3239564,129.258139 78.45292,127.45489 C78.5708158,126.212939 78.2296398,124.970988 77.4905053,123.953365 C76.5430081,122.726753 75.7360234,121.402837 75.0844687,120.005103 L75.0844687,120.005103 Z M75.317373,114.799072 C77.1637656,115.678648 79.6698934,114.374863 80.9152579,111.886648 C82.1611037,109.398433 81.6741219,106.668634 79.8282106,105.789059 C77.9822992,104.909484 75.4761714,106.213747 74.2308069,108.701483 C72.9849611,111.189698 73.4714617,113.919497 75.317373,114.799072 L75.317373,114.799072 Z M67.4554076,113.009245 C69.5043884,113.148731 71.3262394,111.022891 71.5244968,108.260977 C71.722273,105.498583 70.2213873,103.146019 68.1719253,103.006533 C66.1229445,102.866568 64.3010935,104.992408 64.1028361,107.754801 C63.9050599,110.516716 65.4059455,112.86928 67.4554076,113.009245 L67.4554076,113.009245 Z M59.9572349,118.41324 C58.0684961,118.47028 56.4718502,116.453728 56.3910073,113.908473 C56.3106457,111.363696 57.7764032,109.254633 59.665142,109.198072 C61.5538808,109.141031 63.1500456,111.157583 63.2308884,113.70236 C63.31125,116.247136 61.8454925,118.356199 59.9572349,118.41324 L59.9572349,118.41324 Z" id="Brand-Logo"></path>
        </g>
    </g>
</svg>